<?xml version="1.0" encoding="UTF-8" standalone="no" ?>
<!DOCTYPE svg PUBLIC "-//W3C//DTD SVG 1.1//EN" "http://www.w3.org/Graphics/SVG/1.1/DTD/svg11.dtd">
<svg xmlns="http://www.w3.org/2000/svg" xmlns:xlink="http://www.w3.org/1999/xlink" version="1.1" width="400" height="400" viewBox="0 0 400 400" xml:space="preserve">
<desc>Created with Fabric.js 3.6.2</desc>
<defs>
</defs>
<g transform="matrix(3.13 0 0 3.13 200 200)" id="Correct"  >
<circle style="stroke: none; stroke-width: 1; stroke-dasharray: none; stroke-linecap: butt; stroke-dashoffset: 0; stroke-linejoin: miter; stroke-miterlimit: 4; fill: rgb(232,243,255); fill-rule: nonzero; opacity: 1;"  cx="0" cy="0" r="30" />
</g>
<g transform="matrix(3.13 0 0 3.13 200 200)" id="Correct"  >
<path style="stroke: none; stroke-width: 1; stroke-dasharray: none; stroke-linecap: butt; stroke-dashoffset: 0; stroke-linejoin: miter; stroke-miterlimit: 4; fill: rgb(46,88,255); fill-rule: nonzero; opacity: 1;"  transform=" translate(-32, -32)" d="M 32 64 A 32 32 0 1 1 64 32 A 32 32 0 0 1 32 64 Z M 32 4 A 28 28 0 1 0 60 32 A 28 28 0 0 0 32 4 Z" stroke-linecap="round" />
</g>
<g transform="matrix(3.13 0 0 3.13 200 201.99)" id="Correct"  >
<path style="stroke: none; stroke-width: 1; stroke-dasharray: none; stroke-linecap: butt; stroke-dashoffset: 0; stroke-linejoin: miter; stroke-miterlimit: 4; fill: rgb(162,208,255); fill-rule: nonzero; opacity: 1;"  transform=" translate(-32, -32.64)" d="M 21 29 l 5.59 5.59 a 2 2 0 0 0 2.82 0 L 43 21 a 4.24 4.24 0 0 1 6 6 L 32.24 43.76 a 6 6 0 0 1 -8.48 0 L 15 35 a 4.24 4.24 0 0 1 6 -6 Z" stroke-linecap="round" />
</g>
<g transform="matrix(3.13 0 0 3.13 199.78 202.22)" id="Correct"  >
<path style="stroke: none; stroke-width: 1; stroke-dasharray: none; stroke-linecap: butt; stroke-dashoffset: 0; stroke-linejoin: miter; stroke-miterlimit: 4; fill: rgb(46,88,255); fill-rule: nonzero; opacity: 1;"  transform=" translate(-31.93, -32.71)" d="M 22.34 45.17 l -8.75 -8.76 A 6.24 6.24 0 0 1 18 25.76 a 6.17 6.17 0 0 1 4.41 1.83 L 28 33.17 L 41.59 19.59 a 6.24 6.24 0 0 1 8.82 8.82 L 33.66 45.17 A 8 8 0 0 1 22.34 45.17 Z M 18 29.76 a 2.25 2.25 0 0 0 -1.59 3.83 l 8.76 8.75 a 4 4 0 0 0 5.66 0 L 47.59 25.59 a 2.25 2.25 0 1 0 -3.18 -3.18 L 30.83 36 a 4.1 4.1 0 0 1 -5.66 0 C 19.14 30 19.25 29.76 18 29.76 Z" stroke-linecap="round" />
</g>
</svg>